HIERARCHY
ROOT Root
{
	OFFSET 0.00000 0.00000 0.00000
	CHANNELS 6 Xposition Yposition Zposition Zrotation Xrotation Yrotation
	JOINT Hip
	{
		OFFSET 0 0 0	
		CHANNELS 3 Zrotation Xrotation Yrotation
		JOINT Tummy
		{
			OFFSET 0 0.04 0	
			CHANNELS 3 Zrotation Xrotation Yrotation
			JOINT ChestBottom
			{
				OFFSET 0 0.194 0	
				CHANNELS 3 Zrotation Xrotation Yrotation
				JOINT ChestTop
				{
					OFFSET 0 0.166 0	
					CHANNELS 3 Zrotation Xrotation Yrotation
					JOINT LeftCollar
					{
						OFFSET 0 0.1 0	
						CHANNELS 3 Zrotation Xrotation Yrotation
						JOINT LeftUpperArm
						{
							OFFSET 0.156 -0.02 0.03	
							CHANNELS 3 Zrotation Xrotation Yrotation
							JOINT LeftForeArm
							{
								OFFSET 0.035 -0.27 -0.01	
								CHANNELS 3 Zrotation Xrotation Yrotation
								JOINT LeftHand
								{
									OFFSET 0.01 -0.27 0.01	
									CHANNELS 3 Zrotation Xrotation Yrotation
									End Site
									{
										OFFSET 0 -0.15 0
									}
								}
							}
						}
					}
					JOINT RightCollar
					{
						OFFSET 0 0.1 0	
						CHANNELS 3 Zrotation Xrotation Yrotation
						JOINT RightUpperArm
						{
							OFFSET -0.156 -0.02 0.03	
							CHANNELS 3 Zrotation Xrotation Yrotation
							JOINT RightForeArm
							{
								OFFSET -0.035 -0.27 -0.01	
								CHANNELS 3 Zrotation Xrotation Yrotation
								JOINT RightHand
								{
									OFFSET -0.01 -0.27 0.01	
									CHANNELS 3 Zrotation Xrotation Yrotation
									End Site
									{
										OFFSET 0 -0.15 0
									}
								}
							}
						}
					}
					JOINT Neck
					{
						OFFSET 0 0.1 0	
						CHANNELS 3 Zrotation Xrotation Yrotation
						JOINT Head
						{
							OFFSET 0 0.127 0.03	
							CHANNELS 3 Zrotation Xrotation Yrotation
							End Site
							{
								OFFSET 0 0.127 0.03
							}
						}
					}
				}
			}
		}
	}
	JOINT LeftHip
	{
		OFFSET 0 0 0	
		CHANNELS 3 Zrotation Xrotation Yrotation
		JOINT LeftThigh
		{
			OFFSET 0.088 -0.06 0	
			CHANNELS 3 Zrotation Xrotation Yrotation
			JOINT LeftLowerLeg
			{
				OFFSET 0 -0.39 0.02	
				CHANNELS 3 Zrotation Xrotation Yrotation
				JOINT LeftFootTop
				{
					OFFSET 0 -0.43 -0.02	
					CHANNELS 3 Zrotation Xrotation Yrotation
					JOINT LeftFootFront
					{
						OFFSET 0 -0.07 0.085	
						CHANNELS 3 Zrotation Xrotation Yrotation
						End Site
						{
							OFFSET 0 -0.005 0.09
						}
					}
				}
				JOINT LeftHeel
				{
					OFFSET 0 -0.43 -0.02	
					CHANNELS 3 Zrotation Xrotation Yrotation
					End Site
					{
						OFFSET 0 -0.075 -0.05
					}
				}
			}
		}
	}
	JOINT RightHip
	{
		OFFSET 0 0 0	
		CHANNELS 3 Zrotation Xrotation Yrotation
		JOINT RightThigh
		{
			OFFSET -0.088 -0.06 0	
			CHANNELS 3 Zrotation Xrotation Yrotation
			JOINT RightLowerLeg
			{
				OFFSET 0 -0.39 0.02	
				CHANNELS 3 Zrotation Xrotation Yrotation
				JOINT RightFootTop
				{
					OFFSET 0 -0.43 -0.02	
					CHANNELS 3 Zrotation Xrotation Yrotation
					JOINT RightFootFront
					{
						OFFSET 0 -0.07 0.085	
						CHANNELS 3 Zrotation Xrotation Yrotation
						End Site
						{
							OFFSET 0 -0.005 0.09
						}
					}
				}
				JOINT RightHeel
				{
					OFFSET 0 -0.43 -0.02	
					CHANNELS 3 Zrotation Xrotation Yrotation
					End Site
					{
						OFFSET 0 -0.075 -0.05
					}
				}
			}
		}
	}
}
MOTION
Frames: 15
Frame Time: 0.05
0 0.955 0 -0 0 -0 -0 0 -0 -0 0 -0 -10.848 20.364 36.043 -0 0 -0 -0 0 -0 4.4065 -20.504 6.1429 -109.09 -31.466 -56.12 -0 0 -0 -0 0 -0 14.537 -34.672 37.412 140.08 -51.716 52.935 -0 0 -0 -0.59888 -22.497 4.0914 -0.59888 -22.497 4.0914 -0 0 -0 -0 0 -0 -0 0 -0 -0 0 -0 -0 0 -0 -0 0 -0 -0 0 -0 -0 0 -0 -0 0 -0 -0 0 -0 -0 0 -0 -0 0 -0 
0 0.955 0 -0 0 -0 -0 0 -0 -0 0 -0 -10.33 19.345 38.325 -0 0 -0 -0 0 -0 5.9817 -11.338 7.379 -111.99 -33.435 -54.262 -0 0 -0 -0 0 -0 11.506 -33.423 39.274 135.11 -56.529 48.442 -0 0 -0 -0.60546 -21.799 3.3149 -0.60546 -21.799 3.3149 -0 0 -0 -0 0 -0 -0 0 -0 -0 0 -0 -0 0 -0 -0 0 -0 -0 0 -0 -0 0 -0 -0 0 -0 -0 0 -0 -0 0 -0 -0 0 -0 
0 0.955 0 -0 0 -0 -0 0 -0 -0 0 -0 -9.8824 18.598 40.437 -0 0 -0 -0 0 -0 5.7927 -2.1811 8.6688 -114.17 -35.889 -47.237 -0 0 -0 -0 0 -0 8.8171 -32.107 42.191 125.88 -61.175 40.267 -0 0 -0 -0.5485 -21.27 2.4923 -0.54849 -21.27 2.4924 -0 0 -0 -0 0 -0 -0 0 -0 -0 0 -0 -0 0 -0 -0 0 -0 -0 0 -0 -0 0 -0 -0 0 -0 -0 0 -0 -0 0 -0 -0 0 -0 
0 0.955 0 -0 0 -0 -0 0 -0 -0 0 -0 -9.9595 17.917 42.624 -0 0 -0 -0 0 -0 3.7905 4.7007 12.867 -114.38 -36.6 -32.484 -0 0 -0 -0 0 -0 6.6181 -30.934 44.977 111.16 -63.75 27.726 -0 0 -0 -0.43836 -21.141 1.5208 -0.43836 -21.141 1.5208 -0 0 -0 -0 0 -0 -0 0 -0 -0 0 -0 -0 0 -0 -0 0 -0 -0 0 -0 -0 0 -0 -0 0 -0 -0 0 -0 -0 0 -0 -0 0 -0 
0 0.955 0 -0 0 -0 -0 0 -0 -0 0 -0 -10.119 17.12 44.609 -0 0 -0 -0 0 -0 1.0881 8.3435 19.126 -112.35 -35.965 -19.254 -0 0 -0 -0 0 -0 4.6434 -29.435 46.808 95.53 -62.635 14.779 -0 0 -0 -0.23026 -21.129 0.5136 -0.23026 -21.129 0.51359 -0 0 -0 -0 0 -0 -0 0 -0 -0 0 -0 -0 0 -0 -0 0 -0 -0 0 -0 -0 0 -0 -0 0 -0 -0 0 -0 -0 0 -0 -0 0 -0 
0 0.955 0 -0 0 -0 -0 0 -0 -0 0 -0 -10.429 16.022 46.187 -0 0 -0 -0 0 -0 -1.41 10.006 25.024 -110.31 -33.937 -11.23 -0 0 -0 -0 0 -0 3.034 -27.438 46.867 85.584 -57.785 5.1583 -0 0 -0 0.22626 -21.018 -0.36032 0.22626 -21.018 -0.36031 -0 0 -0 -0 0 -0 -0 0 -0 -0 0 -0 -0 0 -0 -0 0 -0 -0 0 -0 -0 0 -0 -0 0 -0 -0 0 -0 -0 0 -0 -0 0 -0 
0 0.955 0 -0 0 -0 -0 0 -0 -0 0 -0 -10.716 15.236 47.144 -0 0 -0 -0 0 -0 -3.86 10.048 29.479 -109.25 -31.936 -6.9741 -0 0 -0 -0 0 -0 1.2814 -25.464 45.546 80.852 -51.768 -0.38619 -0 0 -0 0.51989 -20.784 -0.78852 0.51989 -20.784 -0.78853 -0 0 -0 -0 0 -0 -0 0 -0 -0 0 -0 -0 0 -0 -0 0 -0 -0 0 -0 -0 0 -0 -0 0 -0 -0 0 -0 -0 0 -0 -0 0 -0 
0 0.955 0 -0 0 -0 -0 0 -0 -0 0 -0 -11.327 14.467 47.55 -0 0 -0 -0 0 -0 -5.4009 8.9828 31.58 -108.01 -31.78 -4.855 -0 0 -0 -0 0 -0 -0.11172 -23.603 44 78.272 -46.638 -4.2855 -0 0 -0 0.82785 -20.575 -0.7873 0.82784 -20.575 -0.7873 -0 0 -0 -0 0 -0 -0 0 -0 -0 0 -0 -0 0 -0 -0 0 -0 -0 0 -0 -0 0 -0 -0 0 -0 -0 0 -0 -0 0 -0 -0 0 -0 
0 0.955 0 -0 0 -0 -0 0 -0 -0 0 -0 -12.102 13.332 47.443 -0 0 -0 -0 0 -0 -5.1027 8.2151 32.959 -108.87 -31.501 -5.7609 -0 0 -0 -0 0 -0 -0.22523 -21.867 42.29 77.23 -42.98 -8.9216 -0 0 -0 1.453 -20.254 -0.57352 1.453 -20.254 -0.57352 -0 0 -0 -0 0 -0 -0 0 -0 -0 0 -0 -0 0 -0 -0 0 -0 -0 0 -0 -0 0 -0 -0 0 -0 -0 0 -0 -0 0 -0 -0 0 -0 
0 0.955 0 -0 0 -0 -0 0 -0 -0 0 -0 -12.208 12.794 47.211 -0 0 -0 -0 0 -0 -4.3512 7.1968 33.102 -110.3 -31.016 -9.201 -0 0 -0 -0 0 -0 -0.054973 -21.059 40.57 76.025 -40.917 -13.553 -0 0 -0 1.6688 -19.959 -0.40169 1.6688 -19.959 -0.40168 -0 0 -0 -0 0 -0 -0 0 -0 -0 0 -0 -0 0 -0 -0 0 -0 -0 0 -0 -0 0 -0 -0 0 -0 -0 0 -0 -0 0 -0 -0 0 -0 
0 0.955 0 -0 0 -0 -0 0 -0 -0 0 -0 -12.486 12.153 47.697 -0 0 -0 -0 0 -0 -2.642 5.9276 31.328 -111.04 -30.49 -15.006 -0 0 -0 -0 0 -0 0.14482 -20.515 40.043 74.58 -41.548 -17.184 -0 0 -0 1.9011 -19.788 -0.68131 1.9011 -19.788 -0.68131 -0 0 -0 -0 0 -0 -0 0 -0 -0 0 -0 -0 0 -0 -0 0 -0 -0 0 -0 -0 0 -0 -0 0 -0 -0 0 -0 -0 0 -0 -0 0 -0 
0 0.955 0 -0 0 -0 -0 0 -0 -0 0 -0 -13.051 11.303 48.43 -0 0 -0 -0 0 -0 -0.17832 4.8498 28.259 -109.61 -29.45 -24.148 -0 0 -0 -0 0 -0 0.47473 -20.419 41.073 72.981 -43.88 -22.214 -0 0 -0 2.4162 -19.562 -1.1214 2.4162 -19.562 -1.1214 -0 0 -0 -0 0 -0 -0 0 -0 -0 0 -0 -0 0 -0 -0 0 -0 -0 0 -0 -0 0 -0 -0 0 -0 -0 0 -0 -0 0 -0 -0 0 -0 
0 0.955 0 -0 0 -0 -0 0 -0 -0 0 -0 -13.041 10.94 48.565 -0 0 -0 -0 0 -0 1.0626 4.7931 23.395 -107.03 -29.558 -32.753 -0 0 -0 -0 0 -0 -0.040254 -20.17 42.886 73.166 -46.357 -28.82 -0 0 -0 2.6557 -19.444 -1.3079 2.6557 -19.444 -1.3079 -0 0 -0 -0 0 -0 -0 0 -0 -0 0 -0 -0 0 -0 -0 0 -0 -0 0 -0 -0 0 -0 -0 0 -0 -0 0 -0 -0 0 -0 -0 0 -0 
0 0.955 0 -0 0 -0 -0 0 -0 -0 0 -0 -13.52 10.621 48.69 -0 0 -0 -0 0 -0 2.523 5.1708 18.351 -103.17 -29.326 -43.251 -0 0 -0 -0 0 -0 -0.17936 -20.05 43.77 75.583 -47.849 -35.195 -0 0 -0 2.9849 -19.611 -1.519 2.9849 -19.611 -1.519 -0 0 -0 -0 0 -0 -0 0 -0 -0 0 -0 -0 0 -0 -0 0 -0 -0 0 -0 -0 0 -0 -0 0 -0 -0 0 -0 -0 0 -0 -0 0 -0 
0 0.955 0 -0 0 -0 -0 0 -0 -0 0 -0 -13.479 10.556 48.178 -0 0 -0 -0 0 -0 2.683 6.2226 13.102 -98.981 -31.743 -54.486 -0 0 -0 -0 0 -0 -0.41596 -20.026 44.383 80.206 -49.669 -43.955 -0 0 -0 2.9831 -19.514 -1.4724 2.9831 -19.514 -1.4724 -0 0 -0 -0 0 -0 -0 0 -0 -0 0 -0 -0 0 -0 -0 0 -0 -0 0 -0 -0 0 -0 -0 0 -0 -0 0 -0 -0 0 -0 -0 0 -0 
